<svg width="25" height="24" viewBox="0 0 25 24" fill="none" xmlns="http://www.w3.org/2000/svg">
<path d="M23.5 12C23.5 18.0751 18.5751 23 12.5 23C6.42487 23 1.5 18.0751 1.5 12C1.5 5.92487 6.42487 1 12.5 1C18.5751 1 23.5 5.92487 23.5 12Z" stroke="#2F80ED" stroke-width="2"/>
<path d="M16.5049 15.1448C16.611 14.5756 16.4759 14.0644 16.0901 13.6303C15.9068 13.4374 15.7042 13.2734 15.4824 13.0804C15.5209 13.0708 15.5402 13.0612 15.5692 13.0515C16.9679 12.8296 17.4695 10.9583 16.8039 10.0419C16.5338 9.66565 16.1962 9.37627 15.82 9.14475C15.5499 8.98077 15.2605 8.83607 14.9711 8.68173C15.1447 8.15119 15.3955 7.41807 15.5981 6.82L14.4888 6.45344C14.2862 7.03221 14.0547 7.74604 13.8714 8.27659C13.5531 8.17048 13.2734 8.07401 12.9743 7.97755C13.148 7.45665 13.3891 6.74283 13.582 6.1544L12.4631 5.78784C12.2605 6.37627 12.0193 7.10939 11.8361 7.63993C11.074 7.37948 10.3409 7.13832 9.57882 6.87787C9.44377 7.28302 9.30872 7.65922 9.17367 8.06437C9.33766 8.12225 9.48236 8.16083 9.60776 8.21871C9.75245 8.26694 9.89715 8.31517 10.0225 8.3634C10.4084 8.51774 10.5338 8.80713 10.4084 9.19299C9.85856 10.7846 9.31837 12.3859 8.77818 13.9776C8.66242 14.3345 8.45985 14.4116 8.12223 14.3055C7.87142 14.2284 7.62062 14.1415 7.37946 14.0644C7.1576 14.4888 6.93573 14.8939 6.71387 15.3184C7.46628 15.5788 8.20904 15.8296 8.9711 16.0901C8.77818 16.6592 8.53702 17.3827 8.33445 17.9904L9.45342 18.357C9.66564 17.7589 9.89715 17.0547 10.0901 16.4856C10.3988 16.6013 10.6881 16.7075 10.9775 16.8136C10.7846 17.3827 10.5531 18.0772 10.3602 18.6657L11.4791 19.0322C11.6914 18.4341 11.9229 17.73 12.1158 17.1705C12.1544 17.1705 12.1833 17.1801 12.2219 17.1801C12.7814 17.2669 13.3505 17.402 13.9004 17.4502C14.6335 17.4984 15.2991 17.2862 15.8103 16.7075C16.1672 16.2637 16.3988 15.7332 16.5049 15.1448ZM12.5499 9.2991C13.2444 9.53061 13.9486 9.69459 14.4791 10.1866C14.8361 10.5049 14.9325 10.9197 14.7685 11.3248C14.5949 11.7589 14.238 11.9904 13.746 11.9808C13.0708 11.9808 12.4341 11.7589 11.7782 11.5177C12.0386 10.7943 12.2894 10.0708 12.5499 9.2991ZM13.148 15.6849C12.4341 15.7621 11.7878 15.5403 11.1222 15.3377C10.9389 15.2798 10.7653 15.2123 10.5627 15.1448C10.8425 14.3152 11.1222 13.5049 11.4116 12.6753C12.2605 12.955 13.1287 13.1673 13.8039 13.7846C14.1512 14.103 14.2862 14.4985 14.1319 14.9615C13.9679 15.4245 13.6206 15.6464 13.148 15.6849Z" fill="#2F80ED"/>
</svg>
