<svg width="25" height="24" viewBox="0 0 25 24" fill="none" xmlns="http://www.w3.org/2000/svg">
<path d="M23.5 12C23.5 18.0751 18.5751 23 12.5 23C6.42487 23 1.5 18.0751 1.5 12C1.5 5.92487 6.42487 1 12.5 1C18.5751 1 23.5 5.92487 23.5 12Z" stroke="#2F80ED" stroke-width="2"/>
<path d="M14.1573 7.26367H9.73926L9.3727 9.30869L13.3566 9.31833C15.3148 9.31833 15.9033 10.0322 15.884 11.209C15.8743 11.8167 15.6139 12.8392 15.4981 13.1672C15.1991 14.0547 14.5721 15.0579 12.2473 15.0579H8.36949L8.00293 17.1029H12.4113C13.9643 17.1029 14.6299 16.9196 15.3245 16.6013C16.8775 15.8875 17.8036 14.3537 18.1701 12.3569C18.72 9.37621 18.0351 7.26367 14.1573 7.26367Z" fill="#2F80ED"/>
<path d="M7.83054 11.1511C6.67298 11.1511 6.509 11.9035 6.40289 12.3569C6.25819 12.955 6.20996 13.1961 6.20996 13.1961H10.7341C11.8916 13.1961 12.0556 12.4437 12.1617 11.9904C12.3064 11.3923 12.3547 11.1511 12.3547 11.1511H7.83054Z" fill="#2F80ED"/>
</svg>
