<svg width="25" height="24" viewBox="0 0 25 24" fill="none" xmlns="http://www.w3.org/2000/svg">
<path d="M23.5 12C23.5 18.0751 18.5751 23 12.5 23C6.42487 23 1.5 18.0751 1.5 12C1.5 5.92487 6.42487 1 12.5 1C18.5751 1 23.5 5.92487 23.5 12Z" stroke="#2F80ED" stroke-width="2"/>
<path d="M12.681 15.3663V18.646L16.7518 12.9258L12.681 15.3663Z" fill="#2F80ED"/>
<path d="M16.5969 11.8648L12.6805 5.35352V10.0898L16.5969 11.8648Z" fill="#2F80ED"/>
<path d="M12.6801 10.4661V14.5079L16.5579 12.2313L12.6801 10.4661Z" fill="#2F80ED"/>
<path d="M8.4187 11.8648L12.3351 5.35352V10.0898L8.4187 11.8648Z" fill="#2F80ED"/>
<path d="M12.3356 10.4661V14.5079L8.43845 12.2313L12.3356 10.4661Z" fill="#2F80ED"/>
<path d="M12.3265 15.3663V18.646L8.2558 12.9258L12.3265 15.3663Z" fill="#2F80ED"/>
</svg>
