<svg width="162" height="31" viewBox="0 0 162 31" fill="none" xmlns="http://www.w3.org/2000/svg">
<path d="M47.1473 19.01C47.1473 19.622 47.6333 20.09 48.2273 20.09C48.8393 20.09 49.3253 19.622 49.3253 19.01V14.636C49.3253 13.178 50.1533 12.278 51.3593 12.278C52.5653 12.278 53.2853 13.106 53.2853 14.582V19.01C53.2853 19.622 53.7713 20.09 54.3833 20.09C54.9773 20.09 55.4633 19.622 55.4633 19.01V14.636C55.4633 13.106 56.3093 12.278 57.4973 12.278C58.7213 12.278 59.4233 13.088 59.4233 14.6V19.01C59.4233 19.622 59.9093 20.09 60.5213 20.09C61.1333 20.09 61.6013 19.622 61.6013 19.01V13.934C61.6013 11.612 60.3413 10.298 58.2713 10.298C56.8313 10.298 55.8233 10.964 55.0673 11.972C54.5633 10.964 53.5913 10.298 52.2233 10.298C50.7653 10.298 49.9373 11.09 49.3253 11.936V11.486C49.3253 10.874 48.8393 10.388 48.2273 10.388C47.6153 10.388 47.1473 10.874 47.1473 11.486V19.01ZM65.8888 14.582C66.0868 13.106 67.0228 12.08 68.3548 12.08C69.7948 12.08 70.6228 13.178 70.7668 14.582H65.8888ZM72.0268 18.956C72.1888 18.794 72.3148 18.56 72.3148 18.29C72.3148 17.786 71.9368 17.408 71.4508 17.408C71.1988 17.408 71.0548 17.48 70.8928 17.606C70.2808 18.11 69.5608 18.434 68.6428 18.434C67.2388 18.434 66.1408 17.57 65.9068 16.022H71.8648C72.4228 16.022 72.8908 15.59 72.8908 14.978C72.8908 12.782 71.3968 10.298 68.3728 10.298C65.6548 10.298 63.7288 12.53 63.7288 15.248V15.284C63.7288 18.218 65.8528 20.216 68.6068 20.216C70.0828 20.216 71.1628 19.73 72.0268 18.956ZM75.1141 19.01C75.1141 19.622 75.6001 20.09 76.1941 20.09C76.8061 20.09 77.2921 19.604 77.2921 19.01V16.202C77.2921 13.952 78.3541 12.764 79.9021 12.494C80.3881 12.404 80.7661 12.026 80.7661 11.45C80.7661 10.82 80.3701 10.37 79.6861 10.37C78.7321 10.37 77.7961 11.27 77.2921 12.458V11.486C77.2921 10.874 76.8061 10.388 76.1941 10.388C75.5821 10.388 75.1141 10.874 75.1141 11.486V19.01ZM86.6252 20.216C88.2092 20.216 89.2352 19.676 90.0812 18.866C90.2792 18.704 90.3872 18.47 90.3872 18.182C90.3872 17.66 89.9732 17.228 89.4512 17.228C89.1992 17.228 88.9832 17.354 88.8572 17.462C88.2632 17.966 87.5972 18.308 86.7332 18.308C85.0592 18.308 83.8892 16.958 83.8892 15.266V15.23C83.8892 13.574 85.0592 12.206 86.6432 12.206C87.5072 12.206 88.1192 12.548 88.6772 13.016C88.8212 13.124 89.0552 13.232 89.3252 13.232C89.8832 13.232 90.3332 12.8 90.3332 12.242C90.3332 11.882 90.1352 11.612 89.9912 11.486C89.1812 10.784 88.1552 10.298 86.6612 10.298C83.7992 10.298 81.7112 12.566 81.7112 15.266V15.302C81.7112 18.002 83.7992 20.216 86.6252 20.216ZM100.958 11.486C100.958 10.874 100.454 10.388 99.8604 10.388C99.2484 10.388 98.7624 10.874 98.7624 11.486V15.86C98.7624 17.336 97.8804 18.2 96.6204 18.2C95.3244 18.2 94.5864 17.372 94.5864 15.896V11.486C94.5864 10.874 94.1004 10.388 93.4884 10.388C92.8944 10.388 92.4084 10.874 92.4084 11.486V16.544C92.4084 18.758 93.6504 20.198 95.7924 20.198C97.2684 20.198 98.1504 19.424 98.7624 18.524V19.01C98.7624 19.622 99.2664 20.09 99.8604 20.09C100.472 20.09 100.958 19.604 100.958 19.01V11.486ZM103.679 19.01C103.679 19.622 104.165 20.09 104.759 20.09C105.371 20.09 105.857 19.604 105.857 19.01V16.202C105.857 13.952 106.919 12.764 108.467 12.494C108.953 12.404 109.331 12.026 109.331 11.45C109.331 10.82 108.935 10.37 108.251 10.37C107.297 10.37 106.361 11.27 105.857 12.458V11.486C105.857 10.874 105.371 10.388 104.759 10.388C104.147 10.388 103.679 10.874 103.679 11.486V19.01ZM112.842 22.934C114.372 22.934 115.236 22.214 116.046 20.27L119.52 11.936C119.556 11.828 119.61 11.594 119.61 11.414C119.61 10.838 119.142 10.388 118.566 10.388C118.008 10.388 117.702 10.766 117.522 11.216L115.146 17.534L112.59 11.216C112.392 10.712 112.086 10.388 111.528 10.388C110.916 10.388 110.448 10.838 110.448 11.45C110.448 11.594 110.502 11.81 110.574 11.972L114.102 19.856L114.03 20.054C113.67 20.792 113.328 21.062 112.68 21.062C112.374 21.062 112.176 21.008 111.924 20.936C111.816 20.9 111.708 20.864 111.528 20.864C111.06 20.864 110.646 21.224 110.646 21.764C110.646 22.286 111.006 22.556 111.33 22.664C111.78 22.844 112.23 22.934 112.842 22.934Z" fill="#898989"/>
<path d="M125.855 22.916C127.727 22.916 129.113 22.52 130.013 21.62C130.823 20.81 131.237 19.55 131.237 17.822V11.612C131.237 10.856 130.625 10.244 129.869 10.244C129.113 10.244 128.501 10.856 128.501 11.594V11.612C127.763 10.802 126.881 10.172 125.387 10.172C123.173 10.172 121.103 11.792 121.103 14.672V14.708C121.103 17.57 123.137 19.208 125.387 19.208C126.845 19.208 127.727 18.614 128.537 17.642V18.11C128.537 19.838 127.655 20.738 125.783 20.738C124.757 20.738 123.911 20.522 123.119 20.162C122.993 20.108 122.849 20.072 122.669 20.072C122.057 20.072 121.553 20.576 121.553 21.188C121.553 21.692 121.859 22.07 122.327 22.25C123.461 22.7 124.577 22.916 125.855 22.916ZM126.179 16.94C124.847 16.94 123.839 16.04 123.839 14.708V14.672C123.839 13.358 124.847 12.44 126.179 12.44C127.511 12.44 128.537 13.358 128.537 14.672V14.708C128.537 16.022 127.511 16.94 126.179 16.94ZM136.417 20.18C137.749 20.18 138.667 19.694 139.333 18.956V18.974C139.333 19.55 139.855 20.108 140.647 20.108C141.385 20.108 141.979 19.532 141.979 18.794V14.402C141.979 13.106 141.655 12.044 140.935 11.324C140.251 10.64 139.171 10.244 137.677 10.244C136.399 10.244 135.463 10.424 134.599 10.748C134.167 10.91 133.861 11.324 133.861 11.81C133.861 12.44 134.365 12.926 134.995 12.926C135.121 12.926 135.229 12.908 135.391 12.854C135.913 12.692 136.525 12.584 137.281 12.584C138.649 12.584 139.351 13.214 139.351 14.348V14.51C138.667 14.276 137.965 14.114 136.993 14.114C134.707 14.114 133.105 15.086 133.105 17.192V17.228C133.105 19.136 134.599 20.18 136.417 20.18ZM137.245 18.29C136.363 18.29 135.751 17.858 135.751 17.12V17.084C135.751 16.22 136.471 15.752 137.641 15.752C138.307 15.752 138.919 15.896 139.387 16.112V16.598C139.387 17.588 138.523 18.29 137.245 18.29ZM147.503 20.162C148.097 20.162 148.565 20.09 149.069 19.892C149.447 19.748 149.771 19.352 149.771 18.866C149.771 18.236 149.249 17.732 148.637 17.732C148.583 17.732 148.403 17.75 148.313 17.75C147.701 17.75 147.431 17.444 147.431 16.814V12.692H148.637C149.285 12.692 149.807 12.17 149.807 11.522C149.807 10.874 149.285 10.352 148.637 10.352H147.431V9.146C147.431 8.39 146.819 7.778 146.063 7.778C145.307 7.778 144.695 8.39 144.695 9.146V10.352H144.605C143.957 10.352 143.435 10.874 143.435 11.522C143.435 12.17 143.957 12.692 144.605 12.692H144.695V17.264C144.695 19.496 145.829 20.162 147.503 20.162ZM153.667 14.42C153.883 13.178 154.621 12.368 155.755 12.368C156.907 12.368 157.627 13.196 157.789 14.42H153.667ZM159.373 19.046C159.571 18.866 159.733 18.596 159.733 18.236C159.733 17.624 159.283 17.156 158.671 17.156C158.383 17.156 158.203 17.228 158.005 17.372C157.447 17.786 156.817 18.02 156.061 18.02C154.837 18.02 153.973 17.372 153.703 16.13H159.121C159.841 16.13 160.399 15.608 160.399 14.816C160.399 12.818 158.977 10.172 155.755 10.172C152.947 10.172 150.985 12.44 150.985 15.194V15.23C150.985 18.182 153.127 20.216 156.025 20.216C157.429 20.216 158.527 19.766 159.373 19.046Z" fill="#2FC3C5"/>
<path d="M15.7102 4.78721H12.4287L9.93186 9.15838L9.58944 8.77269L9.34689 8.54413L11.8437 4.25867C11.871 4.18742 11.9203 4.12679 11.9845 4.08566C12.0487 4.04453 12.1244 4.02506 12.2004 4.03011H16.0669C16.0062 4.12545 15.9537 4.22581 15.91 4.3301L15.7673 4.61579C15.7543 4.67476 15.7351 4.73221 15.7102 4.78721ZM11.43 10.8297L11.5156 10.9297L11.6154 11.044L11.9721 11.4297L14.1408 7.72989H14.4832L14.6116 7.41563L14.7828 7.01565H13.9125C13.8566 7.02031 13.8023 7.03671 13.7531 7.06378C13.704 7.09086 13.661 7.128 13.6272 7.17278L11.43 10.8297ZM6.49338 7.08707L10.1031 0.758883H26.254L27.6807 4.03011H19.5625C19.6437 4.12743 19.7066 4.23877 19.748 4.35867L19.8193 4.53009L19.9334 4.78721H27.5523L26.2968 6.98708H20.8608L21.032 7.38706L21.1604 7.70132H26.468C26.536 7.70281 26.6031 7.68478 26.6613 7.64934C26.7194 7.6139 26.7662 7.56255 26.7961 7.50133L28.4797 4.64436C28.4876 4.61635 28.4876 4.58667 28.4797 4.55865C28.508 4.47528 28.508 4.3849 28.4797 4.30153L26.8675 0.230344C26.8326 0.155661 26.7754 0.0936146 26.7039 0.0526998C26.6324 0.011785 26.55 -0.00599779 26.468 0.00178604H9.88906C9.82332 0.0033095 9.75898 0.0210559 9.70173 0.0534506C9.64449 0.0858453 9.59612 0.131887 9.56091 0.187489L5.16649 7.80132C5.49912 7.46125 5.91861 7.21913 6.37924 7.10136L6.49338 7.08707ZM13.9125 24.0432H23.3149C23.375 24.0639 23.4402 24.0639 23.5003 24.0432L23.1579 23.2147V23.329H19.4626C19.2134 23.5545 18.9226 23.7292 18.6066 23.8432C18.3592 23.9309 18.0985 23.9744 17.8361 23.9718H17.6221C17.4231 23.9585 17.2265 23.9201 17.0371 23.8575C16.7064 23.7572 16.4035 23.5811 16.1525 23.3432H14.1408L13.0422 21.4576C13.0334 21.6365 13.0047 21.8137 12.9566 21.9862C12.9566 22.1576 12.8567 22.3433 12.7996 22.5433L13.5844 23.9718C13.6301 24.0077 13.6834 24.0328 13.7403 24.0452C13.7971 24.0575 13.856 24.0569 13.9125 24.0432ZM11.7153 25.0146L11.5013 25.5145C11.4576 25.628 11.4052 25.7378 11.3444 25.8431L11.8865 26.8002C11.915 26.8625 11.9615 26.9149 12.0199 26.9506C12.0784 26.9862 12.1463 27.0035 12.2147 27.0002H25.0555C25.1239 27.0035 25.1917 26.9862 25.2502 26.9506C25.3087 26.9149 25.3552 26.8625 25.3837 26.8002L25.5121 26.5716C25.3129 26.5267 25.1241 26.4443 24.9556 26.3288L24.813 26.2288H12.4287L11.7153 25.0146ZM36.4553 15.6294L36.3269 15.8437L27.6665 30.8285C27.6305 30.8824 27.5816 30.9263 27.5243 30.9563C27.4669 30.9862 27.403 31.0012 27.3383 30.9999H9.88906C9.82439 31.0012 9.76042 30.9862 9.70307 30.9563C9.64572 30.9263 9.59683 30.8824 9.56091 30.8285L0.786346 15.6866C0.751075 15.6284 0.732422 15.5617 0.732422 15.4937C0.732422 15.4257 0.751075 15.359 0.786346 15.3009L4.49592 8.97267C4.38898 9.36064 4.38898 9.77035 4.49592 10.1583L4.56725 10.4012L1.82788 15.1294H5.52318L5.70866 16.0865L5.58025 15.8294H1.82788L10.1031 30.2H27.11L35.3995 15.8294H19.2343L20.6611 18.4721H29.4499C29.5112 18.4605 29.5741 18.4605 29.6354 18.4721C29.6815 18.4972 29.722 18.5315 29.7544 18.5729C29.7868 18.6143 29.8104 18.6619 29.8237 18.7127C29.8371 18.7635 29.8399 18.8166 29.8321 18.8685C29.8242 18.9205 29.8058 18.9703 29.7781 19.0149L28.9791 20.372L29.2216 19.2006H28.8507C28.8507 19.2863 28.8507 19.3863 28.8507 19.4578L28.7651 19.8577L28.4654 21.2862C28.2372 22.4576 27.9946 23.6432 27.7521 24.8146C27.6901 25.1902 27.5051 25.5345 27.2261 25.7931C26.947 26.0518 26.59 26.2101 26.2112 26.2431C25.8063 26.3193 25.3877 26.2375 25.0412 26.0145C24.9189 25.941 24.8083 25.8495 24.7131 25.7431C24.5561 25.5874 24.4302 25.4031 24.3421 25.2003C24.0425 24.4432 23.7143 23.7004 23.4005 22.9433L23.215 22.5147C23.0385 22.1242 22.9472 21.7005 22.9472 21.2719C22.9472 20.8433 23.0385 20.4196 23.215 20.0292C23.3009 19.85 23.4011 19.678 23.5146 19.5149L23.6145 19.3578H22.5872L21.9594 20.0292C21.1747 20.9148 20.3757 21.7719 19.591 22.6433C19.2798 23.0139 18.8831 23.3031 18.4353 23.4861C18.1652 23.5798 17.8781 23.6139 17.5936 23.5861C17.4199 23.5666 17.2482 23.5331 17.0799 23.4861C16.7448 23.3754 16.4446 23.1783 16.2096 22.9147L9.74639 15.658L10.5311 17.0865L12.2004 19.4435C12.4469 19.7831 12.6156 20.1729 12.6945 20.5853C12.7734 20.9976 12.7606 21.4222 12.657 21.829C12.6223 22.0007 12.5697 22.1683 12.5 22.329C12.1148 23.2861 11.701 24.2289 11.3016 25.186C11.2695 25.2742 11.2314 25.3602 11.1874 25.4431C11.1434 25.5292 11.0909 25.6105 11.0305 25.686C10.8556 25.93 10.6202 26.1243 10.3475 26.2495C10.0748 26.3748 9.77416 26.4267 9.4753 26.4002C9.08379 26.3534 8.7188 26.178 8.43742 25.9014C8.15604 25.6249 7.97413 25.2628 7.92014 24.8717C7.66332 23.5289 7.37797 22.2004 7.10688 20.872C6.90714 19.8434 6.69312 18.8149 6.47911 17.8007L6.22229 16.5294L5.87987 14.9437C5.87987 14.7438 5.79427 14.5438 5.76573 14.3438C5.56599 13.3153 5.35197 12.2868 5.13796 11.2583C5.05235 10.8583 4.98101 10.4297 4.86687 10.0155C4.74686 9.45718 4.84986 8.87403 5.15384 8.39081C5.45782 7.9076 5.93863 7.56269 6.49338 7.42991C6.86879 7.33107 7.26492 7.3447 7.63267 7.46913C8.00041 7.59355 8.3236 7.82329 8.56218 8.12987C8.73339 8.30129 8.89033 8.4727 9.04727 8.65841L9.34689 8.97267C9.94613 9.61549 10.5454 10.2869 11.1446 10.9583C11.2461 11.0476 11.3371 11.1482 11.4157 11.2583L13.7698 13.8438L16.9515 17.3436V17.4293L16.7803 17.1436C15.8672 15.8151 14.9683 14.4723 14.0695 13.1439C13.7525 12.7095 13.5587 12.1974 13.5085 11.6618C13.4582 11.1263 13.5535 10.587 13.7841 10.1012C14.1265 9.27266 14.4832 8.41556 14.8399 7.58704C14.8399 7.44419 14.9683 7.30135 15.0254 7.17278C15.3535 6.35855 15.696 5.55859 16.0384 4.74436L16.1525 4.47295C16.1946 4.38429 16.2422 4.29841 16.2952 4.21582C16.4536 3.98307 16.6663 3.79259 16.915 3.66096C17.1637 3.52932 17.4407 3.46051 17.722 3.46051C18.0032 3.46051 18.2803 3.52932 18.5289 3.66096C18.7776 3.79259 18.9904 3.98307 19.1487 4.21582C19.1872 4.26974 19.2207 4.32713 19.2486 4.38724L19.4198 4.77293C19.6909 5.37289 19.9334 5.97285 20.176 6.57282C20.2616 6.75852 20.3472 6.97279 20.4328 7.17278C20.5184 7.37277 20.5469 7.44419 20.6183 7.58704C20.975 8.41556 21.3031 9.27266 21.6741 10.1012C21.8999 10.6172 21.9789 11.1858 21.9024 11.7439H23.7571C23.8998 11.6011 24.0425 11.444 24.1709 11.2868L26.7248 8.42985C26.9373 8.20283 27.1715 7.99711 27.4239 7.8156C27.8012 7.53263 28.2685 7.39687 28.7385 7.43367C29.2085 7.47048 29.649 7.67733 29.9778 8.01559C30.2969 8.26529 30.5387 8.60053 30.6751 8.98236C30.8115 9.36418 30.8369 9.77692 30.7483 10.1726C30.6341 10.6869 30.5342 11.2011 30.4201 11.7154H34.2153C34.2851 11.7145 34.3538 11.7327 34.4142 11.7679C34.4745 11.8031 34.5241 11.8541 34.5577 11.9154L36.4553 15.3152C36.4765 15.3648 36.4874 15.4183 36.4874 15.4723C36.4874 15.5263 36.4765 15.5797 36.4553 15.6294ZM9.50384 15.4151C9.50384 15.4151 9.50384 15.4151 9.4325 15.4151H9.50384ZM35.4423 15.1294L34.0155 12.4725H20.761L19.3342 15.1294H35.4423Z" fill="url(#paint0_linear)"/>
<path opacity="0.25" d="M20.4452 19.315C20.3794 19.3135 20.3151 19.2958 20.2578 19.2634C20.2006 19.231 20.1522 19.1849 20.117 19.1293L18.2908 15.701C18.2551 15.6456 18.2362 15.5811 18.2362 15.5152C18.2362 15.4494 18.2551 15.3849 18.2908 15.3295L19.9601 12.4012H19.7318C19.662 12.4003 19.5932 12.4184 19.5329 12.4537C19.4726 12.4889 19.423 12.5399 19.3894 12.6011L17.4204 16.0152C17.3848 16.0706 17.3658 16.1351 17.3658 16.2009C17.3658 16.2668 17.3848 16.3313 17.4204 16.3866L19.3323 19.8007C19.3675 19.8563 19.4159 19.9023 19.4731 19.9347C19.5304 19.9671 19.5947 19.9849 19.6604 19.9864H22.0717L22.6994 19.315H20.4452ZM28.8202 19.315H23.6126L23.5127 19.4722C23.3992 19.6353 23.299 19.8072 23.2131 19.9864H28.6633L28.7489 19.5864C28.7489 19.515 28.7489 19.415 28.7489 19.3293L28.8202 19.315Z" fill="black" fill-opacity="0.16"/>
<defs>
<linearGradient id="paint0_linear" x1="21.4744" y1="-7.26937" x2="10.7486" y2="50.5796" gradientUnits="userSpaceOnUse">
<stop stop-color="#3AD1BF"/>
<stop offset="1" stop-color="#119BD2"/>
</linearGradient>
</defs>
</svg>
