<svg width="116" height="100" viewBox="0 0 116 100" fill="none" xmlns="http://www.w3.org/2000/svg">
<path d="M48.6462 15.4426H38.0606L30.0063 29.5432L28.9017 28.299L28.1193 27.5617L36.1736 13.7377C36.2615 13.5078 36.4207 13.3122 36.6278 13.1795C36.8348 13.0469 37.0789 12.9841 37.3242 13.0004H49.7968C49.6008 13.3079 49.4315 13.6316 49.2905 13.9681L48.8303 14.8897C48.7882 15.0799 48.7265 15.2652 48.6462 15.4426ZM34.8389 34.9345L35.115 35.2571L35.4372 35.6257L36.5878 36.8699L43.5835 24.9351H44.6881L45.1023 23.9214L45.6546 22.6311H42.8471C42.6667 22.6462 42.4916 22.6991 42.333 22.7864C42.1744 22.8737 42.0359 22.9935 41.9266 23.138L34.8389 34.9345ZM18.9144 22.8615L30.5586 2.44801H82.6583L87.2607 13.0004H61.0728C61.335 13.3143 61.5377 13.6734 61.6711 14.0602L61.9012 14.6132L62.2694 15.4426H86.8465L82.7963 22.539H65.261L65.8133 23.8292L66.2275 24.843H83.3486C83.5682 24.8478 83.7845 24.7896 83.9721 24.6753C84.1596 24.561 84.3106 24.3953 84.4072 24.1979L89.8381 14.9818C89.8637 14.8914 89.8637 14.7957 89.8381 14.7053C89.9293 14.4364 89.9293 14.1448 89.8381 13.8759L84.6373 0.743044C84.5246 0.502133 84.3403 0.301983 84.1096 0.169999C83.879 0.0380162 83.6132 -0.0193477 83.3486 0.00576141H29.8682C29.6562 0.0106758 29.4486 0.0679222 29.2639 0.172421C29.0793 0.27692 28.9232 0.425441 28.8097 0.604804L14.6341 25.1655C15.7071 24.0685 17.0603 23.2875 18.5462 22.9076L18.9144 22.8615ZM42.8471 77.5587H73.1772C73.3711 77.6254 73.5817 77.6254 73.7756 77.5587L72.671 74.886V75.2547H60.7506C59.9467 75.9822 59.0087 76.5457 57.9892 76.9136C57.1914 77.1965 56.3502 77.3369 55.5038 77.3283H54.8135C54.1715 77.2855 53.5375 77.1616 52.9265 76.9597C51.8596 76.636 50.8826 76.068 50.073 75.3008H43.5835L40.0396 69.2182C40.0114 69.795 39.9188 70.3669 39.7635 70.9231C39.7635 71.4761 39.4413 72.0752 39.2572 72.7203L41.7886 77.3283C41.9362 77.4442 42.1081 77.5252 42.2914 77.5651C42.4748 77.605 42.6648 77.6028 42.8471 77.5587ZM35.7594 80.6922L35.069 82.305C34.9281 82.6709 34.7589 83.0253 34.5627 83.3648L36.3117 86.4522C36.4034 86.6534 36.5534 86.8224 36.7421 86.9374C36.9308 87.0524 37.1496 87.1081 37.3702 87.0973H78.7922C79.0129 87.1081 79.2317 87.0524 79.4204 86.9374C79.6091 86.8224 79.759 86.6534 79.8508 86.4522L80.265 85.7149C79.6225 85.5699 79.0134 85.3041 78.47 84.9315L78.0098 84.609H38.0606L35.7594 80.6922ZM115.566 50.4175L115.152 51.1087L87.2147 99.4468C87.0988 99.6205 86.9411 99.7623 86.7561 99.8589C86.5711 99.9555 86.3648 100.004 86.1561 99.9997H29.8682C29.6596 100.004 29.4533 99.9555 29.2683 99.8589C29.0833 99.7623 28.9256 99.6205 28.8097 99.4468L0.504639 50.6018C0.390859 50.4143 0.330688 50.1991 0.330688 49.9797C0.330688 49.7603 0.390859 49.5451 0.504639 49.3576L12.471 28.9441C12.126 30.1956 12.126 31.5173 12.471 32.7688L12.7011 33.5521L3.86442 48.8047H15.7848L16.3831 51.892L15.9689 51.0626H3.86442L30.5586 97.4193H85.4197L112.16 51.0626H60.0142L64.6167 59.5874H92.9677C93.1654 59.55 93.3684 59.55 93.5661 59.5874C93.7148 59.6685 93.8454 59.7792 93.9499 59.9126C94.0544 60.0461 94.1305 60.1995 94.1736 60.3635C94.2167 60.5275 94.2259 60.6986 94.2006 60.8662C94.1752 61.0339 94.1159 61.1946 94.0263 61.3385L91.4489 65.7161L92.2314 61.9375H91.0347C91.0347 62.214 91.0347 62.5366 91.0347 62.767L90.7586 64.0572L89.7921 68.6652C89.0557 72.4438 88.2733 76.2684 87.4908 80.047C87.291 81.2587 86.694 82.3693 85.794 83.2036C84.894 84.038 83.7422 84.5486 82.5202 84.655C81.2143 84.901 79.8639 84.6372 78.7462 83.9178C78.3516 83.6805 77.9948 83.3854 77.6876 83.0422C77.1814 82.5399 76.7753 81.9456 76.491 81.2912C75.5245 78.8489 74.4659 76.4528 73.4534 74.0105L72.8551 72.6281C72.2857 71.3685 71.9911 70.0018 71.9911 68.6191C71.9911 67.2365 72.2857 65.8698 72.8551 64.6102C73.1324 64.0322 73.4556 63.4775 73.8216 62.9513L74.1438 62.4444H70.83L68.8049 64.6102C66.2736 67.4671 63.6962 70.2319 61.1649 73.0428C60.1608 74.2384 58.8814 75.1714 57.4369 75.7616C56.5655 76.0638 55.6392 76.1738 54.7214 76.0841C54.1614 76.0211 53.6073 75.9133 53.0646 75.7616C51.9834 75.4044 51.0152 74.7687 50.2571 73.9184L29.408 50.5096L31.9393 55.1176L37.3242 62.7209C38.1193 63.8164 38.6635 65.074 38.9181 66.4041C39.1726 67.7341 39.1313 69.104 38.797 70.4163C38.6851 70.9701 38.5154 71.5107 38.2907 72.0291C37.048 75.1164 35.7133 78.1577 34.4247 81.2451C34.3212 81.5298 34.1982 81.8069 34.0565 82.0746C33.9146 82.3521 33.745 82.6146 33.5502 82.8579C32.9861 83.6453 32.2267 84.2719 31.347 84.6759C30.4673 85.0799 29.4976 85.2475 28.5335 85.1619C27.2706 85.0109 26.0932 84.4451 25.1855 83.553C24.2779 82.6609 23.691 81.4928 23.5169 80.2313C22.6884 75.8998 21.7679 71.6144 20.8935 67.3289C20.2491 64.0111 19.5588 60.6934 18.8684 57.4217L18.0399 53.3205L16.9354 48.2056C16.9354 47.5605 16.6592 46.9154 16.5672 46.2703C15.9228 42.9525 15.2325 39.6347 14.5421 36.3169C14.2659 35.0267 14.0358 33.6443 13.6676 32.308C13.2805 30.507 13.6127 28.6259 14.5933 27.0671C15.5739 25.5084 17.1249 24.3958 18.9144 23.9675C20.1254 23.6486 21.4033 23.6926 22.5895 24.094C23.7758 24.4953 24.8184 25.2364 25.588 26.2254C26.1403 26.7783 26.6465 27.3313 27.1528 27.9303L28.1193 28.9441C30.0523 31.0177 31.9854 33.1835 33.9184 35.3493C34.2458 35.6373 34.5392 35.962 34.7928 36.3169L42.3869 44.6574L52.6503 55.9471V56.2236L52.098 55.302C49.1525 51.0165 46.2529 46.685 43.3534 42.3995C42.331 40.9983 41.7058 39.3465 41.5437 37.6188C41.3817 35.8912 41.6889 34.1517 42.4329 32.5844C43.5375 29.9118 44.6881 27.147 45.8387 24.4743C45.8387 24.0135 46.2529 23.5527 46.437 23.138C47.4956 20.5114 48.6002 17.9309 49.7048 15.3044L50.073 14.4289C50.2087 14.1429 50.3624 13.8658 50.5332 13.5994C51.0441 12.8486 51.7304 12.2342 52.5325 11.8095C53.3347 11.3849 54.2283 11.1629 55.1357 11.1629C56.043 11.1629 56.9366 11.3849 57.7388 11.8095C58.5409 12.2342 59.2272 12.8486 59.7381 13.5994C59.8623 13.7734 59.9702 13.9585 60.0603 14.1524L60.6126 15.3965C61.487 17.3319 62.2694 19.2673 63.0519 21.2026C63.328 21.8017 63.6041 22.4929 63.8803 23.138C64.1564 23.7831 64.2485 24.0135 64.4786 24.4743C65.6292 27.147 66.6878 29.9118 67.8844 32.5844C68.613 34.2492 68.8678 36.0831 68.6208 37.8837H74.604C75.0642 37.4229 75.5245 36.916 75.9387 36.4091L84.1771 27.1931C84.8627 26.4607 85.618 25.7971 86.4323 25.2116C87.6494 24.2988 89.1568 23.8609 90.6729 23.9796C92.189 24.0983 93.6101 24.7656 94.6706 25.8567C95.7001 26.6622 96.4801 27.7437 96.92 28.9753C97.3599 30.207 97.4418 31.5384 97.156 32.8148C96.7878 34.4737 96.4656 36.1326 96.0974 37.7915H108.34C108.565 37.7887 108.787 37.8473 108.981 37.9609C109.176 38.0745 109.336 38.239 109.444 38.4366L115.566 49.4037C115.634 49.5639 115.669 49.7364 115.669 49.9106C115.669 50.0848 115.634 50.2572 115.566 50.4175ZM28.6256 49.7263C28.6256 49.7263 28.6256 49.7263 28.3954 49.7263H28.6256ZM112.298 48.8047L107.696 40.2338H64.9389L60.3364 48.8047H112.298Z" fill="url(#paint0_linear)"/>
<path opacity="0.25" d="M63.9202 62.3061C63.7081 62.3012 63.5006 62.2439 63.3159 62.1394C63.1313 62.0349 62.9752 61.8864 62.8616 61.707L56.9705 50.6478C56.8556 50.4692 56.7944 50.2612 56.7944 50.0487C56.7944 49.8363 56.8556 49.6283 56.9705 49.4497L62.3554 40.0033H61.619C61.3938 40.0005 61.172 40.059 60.9774 40.1727C60.7829 40.2863 60.6228 40.4507 60.5144 40.6484L54.163 51.6616C54.0481 51.8402 53.9869 52.0481 53.9869 52.2606C53.9869 52.4731 54.0481 52.681 54.163 52.8596L60.3303 63.8728C60.4439 64.0522 60.5999 64.2007 60.7846 64.3052C60.9692 64.4097 61.1768 64.4669 61.3889 64.4718H69.167L71.1921 62.3061H63.9202ZM90.9366 62.3061H74.1376L73.8155 62.813C73.4495 63.3391 73.1263 63.8939 72.8489 64.4718H90.4303L90.7064 63.1816C90.7064 62.9512 90.7064 62.6286 90.7064 62.3521L90.9366 62.3061Z" fill="black" fill-opacity="0.16"/>
<defs>
<linearGradient id="paint0_linear" x1="67.2403" y1="-23.4496" x2="32.6411" y2="163.16" gradientUnits="userSpaceOnUse">
<stop stop-color="#3AD1BF"/>
<stop offset="1" stop-color="#119BD2"/>
</linearGradient>
</defs>
</svg>
