<svg width="61" height="61" viewBox="0 0 61 61" fill="none" xmlns="http://www.w3.org/2000/svg">
<rect width="61" height="61" rx="8" fill="#FCFCFC"/>
<path d="M26.1409 12.8757H20.7422L16.6346 20.067L16.0712 19.4325L15.6722 19.0565L19.7799 12.0062C19.8247 11.889 19.9059 11.7892 20.0115 11.7216C20.1171 11.6539 20.2416 11.6219 20.3667 11.6302H26.7277C26.6278 11.787 26.5414 11.9521 26.4695 12.1237L26.2348 12.5937C26.2134 12.6907 26.1819 12.7852 26.1409 12.8757ZM19.0992 22.8166L19.24 22.9811L19.4043 23.1691L19.9911 23.8036L23.5589 17.7169H24.1223L24.3335 17.1999L24.6152 16.5419H23.1834C23.0914 16.5495 23.002 16.5765 22.9212 16.6211C22.8403 16.6656 22.7697 16.7267 22.7139 16.8004L19.0992 22.8166ZM10.9777 16.6594L16.9162 6.24849H43.4871L45.8343 11.6302H32.4785C32.6122 11.7903 32.7156 11.9735 32.7836 12.1707L32.901 12.4527L33.0888 12.8757H45.6231L43.5575 16.4949H34.6145L34.8961 17.1529L35.1074 17.6699H43.8392C43.9511 17.6724 44.0614 17.6427 44.1571 17.5844C44.2528 17.5261 44.3298 17.4416 44.379 17.3409L47.1488 12.6407C47.1618 12.5946 47.1618 12.5458 47.1488 12.4997C47.1953 12.3626 47.1953 12.2139 47.1488 12.0767L44.4964 5.37895C44.4389 5.25609 44.3449 5.15401 44.2273 5.0867C44.1096 5.01939 43.9741 4.99013 43.8392 5.00294H16.5641C16.456 5.00544 16.3501 5.03464 16.256 5.08793C16.1618 5.14123 16.0822 5.21697 16.0243 5.30845L8.79476 17.8344C9.34199 17.275 10.0321 16.8766 10.7899 16.6829L10.9777 16.6594ZM23.1834 44.5549H38.6517C38.7506 44.589 38.858 44.589 38.9569 44.5549L38.3935 43.1919V43.3799H32.3142C31.9042 43.7509 31.4258 44.0383 30.9058 44.2259C30.499 44.3702 30.0699 44.4418 29.6383 44.4374H29.2862C28.9588 44.4156 28.6355 44.3524 28.3239 44.2494C27.7797 44.0844 27.2815 43.7947 26.8686 43.4034H23.5589L21.7516 40.3013C21.7372 40.5955 21.6899 40.8871 21.6107 41.1708C21.6107 41.4528 21.4464 41.7583 21.3525 42.0873L22.6435 44.4374C22.7188 44.4966 22.8065 44.5378 22.9 44.5582C22.9935 44.5785 23.0904 44.5774 23.1834 44.5549ZM19.5686 46.153L19.2165 46.9755C19.1447 47.1622 19.0584 47.3429 18.9583 47.516L19.8503 49.0906C19.8971 49.1932 19.9736 49.2794 20.0698 49.3381C20.166 49.3967 20.2776 49.4251 20.3902 49.4196H41.5154C41.6279 49.4251 41.7395 49.3967 41.8357 49.3381C41.932 49.2794 42.0084 49.1932 42.0552 49.0906L42.2665 48.7146C41.9388 48.6407 41.6282 48.5051 41.3511 48.3151L41.1164 48.1506H20.7422L19.5686 46.153ZM60.2699 30.7129L60.0586 31.0654L45.8108 55.7179C45.7517 55.8065 45.6713 55.8787 45.577 55.928C45.4826 55.9773 45.3774 56.002 45.271 55.9999H16.5641C16.4577 56.002 16.3525 55.9773 16.2582 55.928C16.1638 55.8787 16.0834 55.8065 16.0243 55.7179L1.58871 30.8069C1.53069 30.7113 1.5 30.6015 1.5 30.4897C1.5 30.3778 1.53069 30.268 1.58871 30.1724L7.69156 19.7615C7.51563 20.3998 7.51563 21.0738 7.69156 21.7121L7.80892 22.1116L3.3022 29.8904H9.38157L9.68672 31.4649L9.47546 31.0419H3.3022L16.9162 54.6838H44.8954L58.5329 31.0419H31.9386L34.2859 35.3896H48.7449C48.8457 35.3705 48.9492 35.3705 49.05 35.3896C49.1259 35.4309 49.1925 35.4874 49.2458 35.5554C49.2991 35.6235 49.3379 35.7018 49.3599 35.7854C49.3819 35.869 49.3866 35.9563 49.3736 36.0418C49.3607 36.1273 49.3305 36.2092 49.2848 36.2826L47.9703 38.5152L48.3693 36.5881H47.7591C47.7591 36.7291 47.7591 36.8936 47.7591 37.0111L47.6182 37.6692L47.1253 40.0193C46.7497 41.9463 46.3507 43.8969 45.9517 45.824C45.8498 46.4419 45.5453 47.0083 45.0863 47.4339C44.6273 47.8594 44.0399 48.1198 43.4167 48.1741C42.7507 48.2995 42.062 48.165 41.4919 47.7981C41.2907 47.6771 41.1087 47.5266 40.952 47.3515C40.6938 47.0953 40.4867 46.7923 40.3418 46.4585C39.8488 45.213 39.309 43.9909 38.7926 42.7454L38.4874 42.0403C38.197 41.3979 38.0468 40.7009 38.0468 39.9958C38.0468 39.2906 38.197 38.5936 38.4874 37.9512C38.6289 37.6564 38.7937 37.3735 38.9804 37.1052L39.1447 36.8466H37.4546L36.4219 37.9512C35.1309 39.4082 33.8164 40.8183 32.5254 42.2518C32.0134 42.8616 31.3608 43.3374 30.6242 43.6384C30.1798 43.7925 29.7074 43.8486 29.2393 43.8029C28.9537 43.7708 28.6711 43.7158 28.3943 43.6384C27.8429 43.4562 27.3491 43.132 26.9625 42.6984L16.3294 30.7599L17.6204 33.11L20.3667 36.9876C20.7722 37.5464 21.0497 38.1877 21.1796 38.8661C21.3094 39.5444 21.2883 40.243 21.1178 40.9123C21.0608 41.1948 20.9742 41.4705 20.8596 41.7348C20.2259 43.3094 19.5452 44.8604 18.8879 46.435C18.8352 46.5802 18.7724 46.7215 18.7001 46.858C18.6278 46.9996 18.5413 47.1335 18.4419 47.2575C18.1542 47.6591 17.767 47.9787 17.3183 48.1847C16.8697 48.3908 16.3751 48.4762 15.8834 48.4326C15.2393 48.3556 14.6389 48.067 14.176 47.612C13.7131 47.1571 13.4138 46.5613 13.3249 45.918C12.9024 43.7089 12.433 41.5233 11.987 39.3377C11.6584 37.6457 11.3063 35.9536 10.9542 34.285L10.5317 32.1935L9.96838 29.5849C9.96838 29.2559 9.82755 28.9268 9.78061 28.5978C9.45199 26.9058 9.0999 25.2137 8.74782 23.5216C8.60698 22.8636 8.48962 22.1586 8.30184 21.4771C8.10439 20.5586 8.27385 19.5992 8.77394 18.8042C9.27404 18.0093 10.065 17.4418 10.9777 17.2234C11.5953 17.0608 12.247 17.0832 12.852 17.2879C13.457 17.4926 13.9887 17.8706 14.3812 18.3749C14.6629 18.657 14.9211 18.939 15.1793 19.2445L15.6722 19.7615C16.658 20.819 17.6439 21.9236 18.6297 23.0281C18.7967 23.175 18.9464 23.3406 19.0757 23.5216L22.9487 27.7753L28.183 33.533V33.674L27.9014 33.204C26.3991 31.0184 24.9203 28.8093 23.4416 26.6238C22.9202 25.9091 22.6013 25.0667 22.5187 24.1856C22.436 23.3045 22.5927 22.4174 22.9721 21.6181C23.5355 20.255 24.1223 18.845 24.7091 17.4819C24.7091 17.2469 24.9203 17.0119 25.0142 16.8004C25.5541 15.4608 26.1174 14.1448 26.6808 12.8052L26.8686 12.3587C26.9378 12.2129 27.0162 12.0716 27.1033 11.9357C27.3638 11.5528 27.7139 11.2394 28.1229 11.0229C28.532 10.8063 28.9878 10.6931 29.4505 10.6931C29.9133 10.6931 30.369 10.8063 30.7781 11.0229C31.1872 11.2394 31.5372 11.5528 31.7978 11.9357C31.8611 12.0244 31.9161 12.1188 31.9621 12.2177L32.2438 12.8522C32.6897 13.8393 33.0888 14.8263 33.4878 15.8133C33.6286 16.1189 33.7695 16.4714 33.9103 16.8004C34.0511 17.1294 34.0981 17.2469 34.2154 17.4819C34.8023 18.845 35.3421 20.255 35.9524 21.6181C36.324 22.4671 36.4539 23.4024 36.328 24.3207H39.3794C39.6141 24.0857 39.8488 23.8271 40.0601 23.5686L44.2617 18.8685C44.6113 18.495 44.9965 18.1565 45.4118 17.8579C46.0325 17.3924 46.8013 17.169 47.5745 17.2296C48.3477 17.2901 49.0725 17.6304 49.6134 18.1869C50.1384 18.5977 50.5362 19.1493 50.7605 19.7774C50.9849 20.4056 51.0267 21.0846 50.8809 21.7356C50.6931 22.5816 50.5288 23.4276 50.341 24.2737H56.5847C56.6996 24.2722 56.8127 24.3021 56.9119 24.3601C57.0111 24.418 57.0927 24.5019 57.148 24.6027L60.2699 30.1959C60.3047 30.2776 60.3227 30.3655 60.3227 30.4544C60.3227 30.5433 60.3047 30.6312 60.2699 30.7129ZM15.9304 30.3604C15.9304 30.3604 15.9304 30.3604 15.813 30.3604H15.9304ZM58.6033 29.8904L56.2561 25.5192H34.4502L32.1029 29.8904H58.6033Z" fill="url(#paint0_linear)"/>
<path opacity="0.25" d="M33.9306 36.7761C33.8225 36.7736 33.7166 36.7444 33.6224 36.6911C33.5283 36.6378 33.4487 36.5621 33.3908 36.4706L30.3863 30.8304C30.3277 30.7393 30.2965 30.6332 30.2965 30.5249C30.2965 30.4165 30.3277 30.3104 30.3863 30.2193L33.1326 25.4017H32.757C32.6421 25.4002 32.529 25.4301 32.4298 25.488C32.3306 25.546 32.249 25.6299 32.1937 25.7307L28.9545 31.3474C28.8958 31.4385 28.8647 31.5445 28.8647 31.6529C28.8647 31.7613 28.8958 31.8673 28.9545 31.9584L32.0998 37.5751C32.1577 37.6666 32.2373 37.7423 32.3314 37.7956C32.4256 37.8489 32.5315 37.8781 32.6396 37.8806H36.6065L37.6393 36.7761H33.9306ZM47.709 36.7761H39.1415L38.9772 37.0346C38.7905 37.3029 38.6257 37.5859 38.4843 37.8806H47.4508L47.5916 37.2226C47.5916 37.1051 47.5916 36.9406 47.5916 36.7996L47.709 36.7761Z" fill="black" fill-opacity="0.16"/>
<defs>
<linearGradient id="paint0_linear" x1="35.6239" y1="-6.95929" x2="17.9783" y2="88.2117" gradientUnits="userSpaceOnUse">
<stop stop-color="#3AD1BF"/>
<stop offset="1" stop-color="#119BD2"/>
</linearGradient>
</defs>
</svg>
